<?xml version="1.0" encoding="iso-8859-1"?>
<!-- Uploaded to: SVG Repo, www.svgrepo.com, Generator: SVG Repo Mixer Tools -->
<!DOCTYPE svg PUBLIC "-//W3C//DTD SVG 1.1//EN" "http://www.w3.org/Graphics/SVG/1.1/DTD/svg11.dtd">
<svg fill="#000000" height="800px" width="800px" version="1.1" id="Capa_1" xmlns="http://www.w3.org/2000/svg" xmlns:xlink="http://www.w3.org/1999/xlink" 
	 viewBox="0 0 456.539 456.539" xml:space="preserve">
<g>
	<path d="M391.567,54.818c-0.015,0-0.03,0-0.046,0c-15.948,0-28.936,12.962-28.961,28.916l-0.066,42.076L244.675,7.991
		c-10.656-10.655-27.993-10.655-38.647,0c-3.714,3.714-6.129,8.24-7.254,13.011l-2.102-2.103
		c-5.162-5.161-12.024-8.003-19.324-8.003s-14.162,2.842-19.325,8.004c-10.654,10.655-10.654,27.993,0.001,38.649l6.504,6.504
		c-4.879,1.153-9.356,3.631-12.989,7.264c-5.162,5.161-8.005,12.024-8.005,19.324s2.843,14.163,8.004,19.324l13.387,13.387
		c-4.775,1.124-9.306,3.538-13.024,7.252c-5.16,5.161-8.003,12.024-8.003,19.324s2.843,14.163,8.003,19.324l8.893,8.893
		c-0.411,1.882-0.634,3.834-0.634,5.837v18.922c-4.169-2.578-9.077-4.07-14.328-4.07c-15.068,0-27.327,12.259-27.327,27.328v141.888
		c0,31.243,10.836,61.814,30.513,86.082c1.284,1.584,3.16,2.406,5.053,2.406c1.438,0,2.886-0.475,4.09-1.451
		c2.788-2.261,3.216-6.354,0.955-9.143c-17.805-21.959-27.61-49.623-27.61-77.895V226.162c0-7.9,6.427-14.328,14.327-14.328
		s14.328,6.427,14.328,14.328v91.159c0,3.59,2.91,6.5,6.5,6.5s6.5-2.91,6.5-6.5V183.983c0-7.9,6.428-14.328,14.328-14.328
		s14.328,6.427,14.328,14.328v124.62c0,3.59,2.91,6.5,6.5,6.5s6.5-2.91,6.5-6.5V151.505c0-7.9,6.428-14.328,14.328-14.328
		s14.327,6.428,14.327,14.328v127.067v36.812c0,3.59,2.91,6.5,6.5,6.5s6.5-2.91,6.5-6.5v-36.812V177.735
		c0-7.9,6.428-14.328,14.328-14.328s14.328,6.428,14.328,14.328c0,0,0.014,182.766,0.042,183.01
		c0.159,1.408,0.777,2.774,1.855,3.856c2.534,2.542,6.65,2.549,9.192,0.015l40.888-40.759c6.232-6.214,16.36-6.197,22.573,0.036
		c6.21,6.229,6.197,16.353-0.028,22.566l-97.552,97.368c-2.541,2.536-2.545,6.652-0.009,9.192c1.27,1.272,2.935,1.908,4.601,1.908
		c1.661,0,3.323-0.633,4.592-1.899l97.552-97.368c11.296-11.274,11.319-29.642,0.052-40.945
		c-11.275-11.311-29.648-11.339-40.958-0.065l-29.799,29.705v-44.527c9.365,3.753,19.127,6.458,29.137,8.064
		c0.349,0.056,0.695,0.083,1.037,0.083c3.137,0,5.897-2.276,6.41-5.472c0.568-3.544-1.844-6.879-5.389-7.447
		c-10.795-1.731-21.268-4.882-31.195-9.362V177.735c0-15.069-12.26-27.328-27.328-27.328c-0.5,0-0.997,0.016-1.491,0.042
		L167.215,48.358c-5.587-5.587-5.587-14.678-0.001-20.264c2.707-2.707,6.306-4.197,10.133-4.197s7.426,1.49,10.132,4.196
		l115.881,115.88c2.537,2.538,6.653,2.538,9.192,0c2.538-2.539,2.538-6.654-0.001-9.192l-97.332-97.334
		c-2.706-2.706-4.196-6.304-4.196-10.131s1.49-7.425,4.196-10.131c5.588-5.587,14.676-5.587,20.264,0l122.836,122.835
		c-17.503,8.537-31.315,22.807-39.294,40.82c-8.959,20.225-9.505,42.727-1.538,63.362c0.995,2.58,3.456,4.161,6.064,4.161
		c0.778,0,1.57-0.141,2.34-0.438c3.349-1.293,5.016-5.056,3.723-8.405c-6.716-17.396-6.255-36.366,1.297-53.416
		s21.192-30.402,38.688-36.853c6.019-2.219,5.868-6.345,5.87-7.764l0.092-57.733c0.007-4.264,1.673-8.269,4.692-11.279
		c3.014-3.004,7.015-4.657,11.269-4.657c0.009,0,0.017,0,0.025,0c8.796,0.014,15.945,7.181,15.937,15.977l-0.13,137.829
		c-0.003,3.59,2.904,6.503,6.494,6.506c0.002,0,0.004,0,0.006,0c3.587,0,6.497-2.906,6.5-6.494l0.13-137.829
		C420.498,67.848,407.527,54.844,391.567,54.818z M187.487,156.656c-8.162,0-15.494,3.601-20.506,9.293l-5.888-5.888
		c-2.705-2.706-4.195-6.304-4.195-10.132s1.49-7.426,4.192-10.129c5.593-5.584,14.686-5.586,20.269-0.003
		c0.016,0.016,0.036,0.026,0.052,0.042l20.405,20.405v0.483C197.646,158.148,192.738,156.656,187.487,156.656z M203.121,143.165
		l-42.39-42.391c-2.707-2.706-4.197-6.305-4.197-10.132s1.49-7.426,4.197-10.132c2.705-2.706,6.304-4.196,10.132-4.196
		c3.758,0,7.299,1.439,9.975,4.051l44.131,44.131C214.664,126.082,206.243,133.447,203.121,143.165z"/>
	<path d="M98.763,153.623c3.072,0,5.804-2.188,6.384-5.317c0.653-3.53-1.678-6.921-5.208-7.575l-56.198-10.407
		c-3.526-0.656-6.921,1.676-7.575,5.208c-0.653,3.53,1.678,6.921,5.208,7.575l56.198,10.407
		C97.972,153.587,98.37,153.623,98.763,153.623z"/>
	<path d="M124.635,116.741c2.958-2.034,3.707-6.081,1.674-9.039l-32.38-47.097c-2.035-2.958-6.081-3.706-9.039-1.674
		c-2.958,2.034-3.707,6.081-1.674,9.039l32.38,47.097c1.261,1.833,3.294,2.818,5.362,2.818
		C122.228,117.885,123.51,117.514,124.635,116.741z"/>
	<path d="M104.647,182.732l-47.097,32.38c-2.958,2.034-3.707,6.081-1.674,9.039c1.261,1.833,3.294,2.818,5.362,2.818
		c1.27,0,2.552-0.371,3.677-1.144l47.097-32.38c2.958-2.034,3.707-6.081,1.674-9.039
		C111.651,181.448,107.605,180.699,104.647,182.732z"/>
</g>
</svg>